<?xml version="1.0" standalone="no"?>
<!DOCTYPE svg PUBLIC "-//W3C//DTD SVG 20010904//EN"
 "http://www.w3.org/TR/2001/REC-SVG-20010904/DTD/svg10.dtd">
<svg version="1.0" xmlns="http://www.w3.org/2000/svg"
 width="363.000000pt" height="363.000000pt" viewBox="0 0 363.000000 363.000000"
 preserveAspectRatio="xMidYMid meet">
<metadata>
Created by potrace 1.14, written by Peter Selinger 2001-2017
</metadata>
<g transform="translate(0.000000,363.000000) scale(0.100000,-0.100000)"
fill="#000000" stroke="none">
<path d="M1000 3408 c-1 -222 -8 -270 -43 -306 -25 -24 -27 -25 -44 -9 -11 9
-28 14 -39 11 -20 -5 -44 11 -61 41 -13 22 -98 22 -123 0 -20 -18 -21 -26 -15
-110 3 -49 13 -157 22 -238 l16 -149 -23 -55 c-31 -75 -29 -95 17 -150 49 -59
63 -85 63 -116 0 -32 71 -121 110 -137 16 -7 30 -19 30 -28 0 -8 -44 -57 -97
-109 l-98 -94 -1 -92 c0 -122 -19 -164 -99 -221 -17 -13 -18 -18 -8 -35 7 -12
13 -43 13 -70 0 -51 16 -76 42 -66 19 8 86 -73 94 -113 5 -25 0 -37 -29 -68
-35 -38 -36 -38 -71 -26 -44 16 -69 9 -84 -24 -20 -42 -14 -50 56 -79 37 -15
135 -57 217 -92 292 -126 630 -270 665 -283 19 -7 40 -17 45 -21 6 -4 37 -18
70 -32 33 -13 175 -73 315 -132 l255 -107 468 7 467 8 0 51 c0 28 -4 242 -10
476 -5 234 -14 715 -20 1070 -6 355 -13 705 -16 778 l-6 133 -44 -87 c-62
-120 -102 -177 -191 -270 -66 -69 -87 -84 -131 -97 -29 -9 -65 -29 -81 -44
-48 -48 -121 -80 -271 -117 -170 -42 -256 -81 -304 -138 -65 -75 -70 -101 -73
-408 l-3 -275 30 54 c17 30 62 88 101 128 67 69 71 76 66 108 -3 20 -15 47
-26 62 -14 17 -21 40 -21 71 0 53 19 114 35 109 5 -1 23 -28 38 -59 l28 -56
-21 -50 c-12 -27 -20 -64 -18 -82 l3 -32 28 22 c33 26 77 92 77 115 0 9 4 14
9 10 10 -6 1 -48 -18 -84 -14 -25 -13 -25 32 -6 19 8 46 29 58 47 21 29 24 44
24 138 0 101 1 108 31 154 l31 47 20 -43 c29 -61 36 -100 23 -133 -15 -39 -8
-40 30 -5 29 27 32 35 27 72 -7 53 11 97 54 131 l34 26 8 -30 c10 -37 -14 -91
-48 -109 -18 -10 -25 -22 -25 -42 0 -33 -34 -69 -112 -119 -28 -18 -57 -48
-72 -75 l-25 -44 82 1 c45 0 124 8 175 17 l94 17 13 39 c19 54 69 102 143 138
35 16 65 28 68 26 7 -7 -26 -121 -42 -145 -23 -35 -89 -64 -183 -78 -101 -16
-193 -34 -198 -38 -7 -8 121 -67 144 -67 20 0 23 -4 18 -20 -5 -15 3 -24 44
-45 49 -24 51 -25 51 -5 0 36 69 66 126 55 33 -6 104 -58 104 -76 0 -14 -96
-59 -125 -59 -30 0 -85 26 -85 40 0 6 -6 10 -14 10 -8 0 -40 13 -71 29 -30 16
-63 27 -73 24 -11 -3 -23 6 -35 26 -10 17 -38 43 -63 57 -42 24 -52 26 -138
22 -81 -3 -102 -8 -161 -37 -86 -43 -187 -142 -235 -231 l-35 -65 -3 -223 c-4
-255 3 -303 53 -380 41 -61 31 -68 -24 -13 -44 44 -58 79 -76 189 l-12 77 -7
-60 c-11 -90 -37 -165 -69 -202 -41 -47 -50 -41 -22 15 38 76 47 158 43 408
-3 216 -4 232 -26 276 -76 153 -231 232 -407 207 -73 -10 -105 -23 -185 -75
-57 -37 -65 -37 -168 -18 -35 7 -61 -13 -62 -47 0 -19 -44 -40 -86 -41 -30 -1
-104 22 -104 32 0 18 44 71 69 84 24 13 39 14 78 5 128 -28 155 -29 181 -8 14
10 40 19 58 19 38 0 84 15 84 28 0 5 -26 20 -57 34 -32 13 -91 46 -131 72 -85
54 -97 75 -106 186 l-7 75 42 -45 c54 -59 72 -94 79 -155 5 -46 9 -52 51 -81
64 -43 148 -68 183 -54 15 5 58 13 97 16 38 4 69 9 69 11 0 16 -80 95 -105
103 -18 6 -49 32 -71 59 -22 26 -45 46 -53 43 -23 -8 -62 21 -86 63 -22 38
-45 165 -30 165 3 0 27 -16 53 -36 53 -40 78 -80 88 -141 3 -23 12 -50 19 -59
10 -15 13 -5 17 60 3 42 8 79 12 83 10 10 57 -38 73 -75 8 -19 13 -59 12 -93
-2 -63 -2 -64 71 -141 22 -23 56 -44 94 -57 l58 -20 -6 29 c-3 17 -18 56 -33
87 l-27 57 17 65 c10 36 19 67 22 69 8 8 44 -41 56 -76 6 -19 8 -54 5 -80 -4
-26 -9 -67 -12 -90 -6 -43 -5 -45 49 -95 31 -29 69 -69 85 -90 l30 -37 7 133
c23 431 -66 552 -458 618 -72 13 -141 31 -169 45 -78 39 -63 44 34 11 64 -22
93 -28 95 -20 3 7 11 9 19 6 8 -3 14 -2 14 1 0 3 -41 87 -92 186 -86 169 -93
180 -119 180 -45 0 -96 52 -115 116 -8 30 -14 63 -12 74 3 19 5 18 57 -8 58
-29 121 -105 121 -146 0 -12 8 -44 18 -71 23 -62 137 -274 162 -299 16 -17
149 -61 157 -52 8 8 -20 131 -37 166 -10 21 -20 70 -23 120 -6 106 -9 114 -57
135 -56 25 -111 85 -112 123 -1 25 -9 37 -38 56 -26 17 -49 48 -78 104 -40 76
-65 172 -46 172 36 0 214 -162 263 -238 16 -26 37 -76 47 -112 17 -60 19 -63
25 -35 4 19 7 2 8 -50 1 -67 28 -231 47 -284 9 -27 16 0 38 151 21 141 22 158
8 217 -10 44 -11 73 -5 95 9 29 10 28 11 -19 0 -27 7 -70 15 -95 15 -44 15
-44 16 -12 1 41 44 126 79 160 33 30 83 62 99 62 19 0 27 -67 13 -112 -17 -57
-99 -136 -150 -144 -49 -8 -65 -41 -57 -117 3 -29 -2 -94 -10 -147 -20 -117
-13 -183 22 -206 13 -9 64 -27 112 -40 73 -21 103 -25 173 -20 47 2 110 13
140 23 52 17 56 21 72 68 27 78 23 193 -8 290 -15 44 -34 89 -44 100 -35 40
-42 68 -41 157 0 88 -11 128 -35 128 -7 0 -14 7 -18 15 -7 20 -24 19 -29 -2
-3 -13 -5 -10 -6 7 -2 25 -22 60 -35 60 -4 0 -14 7 -22 15 -18 18 -34 20 -34
4 0 -8 -4 -9 -13 0 -8 6 -46 13 -85 16 l-72 4 -1 -32 c-1 -46 -11 -72 -36
-101 -32 -36 -46 -33 -71 18 -28 56 -28 89 3 154 29 62 31 74 10 46 -9 -12
-14 -14 -15 -6 0 7 -4 10 -10 7 -5 -3 -15 6 -22 20 -9 21 -9 28 1 34 9 6 10
11 2 15 -6 4 -11 19 -11 34 -1 23 -2 25 -11 10 -5 -10 -17 -18 -25 -18 -8 0
-13 4 -10 8 5 9 -28 42 -42 42 -9 0 -42 37 -42 46 0 4 -12 18 -27 33 -28 26
-29 26 -215 29 l-188 3 0 -193z m966 -574 c36 -17 74 -76 74 -114 0 -63 -71
-130 -138 -130 -40 0 -91 36 -108 75 -30 72 -13 128 50 166 38 23 77 24 122 3z
m-778 -183 c20 -10 51 -36 68 -58 l31 -38 -22 -17 c-21 -16 -28 -16 -82 -3
-47 13 -67 25 -107 66 -39 40 -46 53 -35 60 25 15 108 10 147 -10z m1178 -941
c61 -25 104 -76 104 -123 0 -37 23 -44 59 -18 40 29 93 27 128 -4 24 -21 26
-26 13 -35 -22 -14 -144 -12 -182 4 -18 7 -52 18 -76 24 l-44 10 30 -32 c16
-17 39 -45 51 -63 19 -28 26 -31 56 -26 66 11 102 -4 145 -58 22 -28 40 -55
40 -60 0 -14 -51 -11 -110 7 -56 17 -98 52 -152 130 -16 21 -48 64 -73 94 -70
85 -78 104 -69 164 6 43 8 48 16 30 6 -12 34 -31 64 -44z m-802 -13 c-2 -65
-40 -100 -141 -132 -48 -16 -92 -32 -97 -37 -15 -12 -26 -10 -20 6 3 7 15 18
28 24 13 6 26 22 29 39 9 48 81 120 130 132 64 14 72 11 71 -32z m42 -125
c-17 -16 -18 -16 -5 5 7 12 15 20 18 17 3 -2 -3 -12 -13 -22z m-379 -36 c-23
-25 -44 -36 -75 -41 -41 -7 -43 -6 -34 12 17 32 46 52 88 61 21 5 42 7 46 5 4
-2 -8 -19 -25 -37z m335 2 c-7 -7 -12 -8 -12 -2 0 6 3 14 7 17 3 4 9 5 12 2 2
-3 -1 -11 -7 -17z m48 -8 c0 -5 -5 -10 -11 -10 -5 0 -7 5 -4 10 3 6 8 10 11
10 2 0 4 -4 4 -10z m-189 -47 c-5 -10 -16 -35 -25 -56 -20 -47 -79 -76 -167
-84 -72 -7 -77 6 -21 59 44 44 97 68 150 68 23 0 45 6 52 15 17 20 22 19 11
-2z"/>
<path d="M2696 3391 c-4 -7 -5 -15 -2 -18 9 -9 19 4 14 18 -4 11 -6 11 -12 0z"/>
<path d="M2477 3353 c-4 -3 -7 -15 -7 -26 0 -16 3 -17 15 -7 8 7 15 19 15 26
0 15 -12 19 -23 7z"/>
<path d="M1697 3283 c3 -7 6 -13 8 -13 2 0 5 6 8 13 3 8 -1 14 -8 14 -7 0 -11
-6 -8 -14z"/>
<path d="M2231 3160 c-18 -36 -41 -70 -51 -77 -10 -7 -18 -22 -17 -33 1 -12 5
-16 12 -10 7 6 9 -7 6 -38 l-3 -47 23 29 c18 23 22 39 20 83 -2 45 2 61 24 93
15 22 25 45 23 52 -3 7 -19 -17 -37 -52z"/>
<path d="M1250 3190 c0 -5 5 -10 11 -10 5 0 7 5 4 10 -3 6 -8 10 -11 10 -2 0
-4 -4 -4 -10z"/>
<path d="M2411 3184 c0 -11 3 -14 6 -6 3 7 2 16 -1 19 -3 4 -6 -2 -5 -13z"/>
<path d="M2536 3166 c-9 -19 -16 -41 -16 -49 0 -9 -4 -19 -10 -22 -5 -3 -10
-18 -11 -33 l-1 -27 -8 25 c-7 23 -8 24 -15 5 -4 -11 -12 -30 -17 -42 -6 -12
-7 -30 -3 -40 11 -26 13 -53 3 -47 -4 3 -8 -8 -8 -24 0 -25 -29 -70 -30 -46
-1 5 -11 -3 -23 -17 -26 -31 -75 -64 -83 -56 -7 7 31 64 61 90 14 13 11 13
-12 -3 -18 -11 -35 -26 -39 -32 -4 -7 -9 -6 -14 2 -4 7 -10 -5 -13 -28 -5 -31
-15 -45 -47 -67 -22 -15 -40 -32 -40 -36 0 -5 -5 -9 -11 -9 -19 0 -2 89 28
148 14 28 30 52 35 52 4 0 8 4 8 10 0 11 -32 1 -42 -14 -4 -6 -8 -1 -8 12 0
12 5 21 12 20 7 -2 12 2 13 9 0 16 15 29 15 14 0 -13 87 74 108 108 21 35 13
36 -20 4 -18 -17 -50 -38 -71 -47 -48 -19 -74 -49 -87 -101 -6 -22 -17 -56
-24 -75 -11 -31 -9 -48 15 -145 25 -105 27 -109 39 -82 14 29 36 38 26 10 -4
-10 -16 -51 -27 -93 -11 -41 -22 -84 -26 -94 -4 -15 -2 -18 13 -12 11 4 41 12
68 17 27 5 58 16 67 25 26 23 52 99 46 130 -7 40 19 117 56 166 32 42 110 193
122 234 3 12 13 21 23 20 10 0 18 7 20 21 2 12 12 25 23 28 10 4 19 11 19 16
0 6 -7 6 -17 -1 -44 -25 -72 -58 -82 -97 -6 -22 -20 -52 -31 -65 -25 -29 -25
-25 0 40 15 40 19 66 14 101 -4 33 -1 59 10 85 20 49 14 59 -8 12z m-58 -260
c-7 -8 -15 -12 -17 -11 -5 6 10 25 20 25 5 0 4 -6 -3 -14z"/>
<path d="M2880 2844 c-55 -44 -55 -44 -44 -44 9 0 103 79 94 79 -3 1 -25 -15
-50 -35z"/>
<path d="M2686 2821 c4 -32 14 -61 25 -72 17 -17 19 -17 41 2 l23 20 -24 -11
c-26 -13 -37 -5 -47 40 -15 63 -24 74 -18 21z"/>
<path d="M2645 2820 c3 -5 8 -10 11 -10 2 0 4 5 4 10 0 6 -5 10 -11 10 -5 0
-7 -4 -4 -10z"/>
<path d="M2800 2790 c-9 -6 -10 -10 -3 -10 6 0 15 5 18 10 8 12 4 12 -15 0z"/>
<path d="M2680 2741 c0 -5 7 -11 14 -14 10 -4 13 -1 9 9 -6 15 -23 19 -23 5z"/>
<path d="M2657 2703 c3 -7 1 -13 -5 -13 -5 0 -12 -7 -16 -15 -4 -11 4 -8 24 7
35 25 37 34 11 34 -11 0 -17 -5 -14 -13z"/>
<path d="M2595 2619 c-9 -17 -41 -57 -71 -90 -30 -32 -54 -61 -54 -63 0 -7 71
14 101 29 39 21 52 40 35 54 -14 11 -9 62 8 90 4 6 5 11 2 11 -3 0 -13 -14
-21 -31z"/>
<path d="M2540 2617 c-75 -35 -190 -132 -190 -161 0 -9 63 5 86 20 27 16 122
113 135 137 11 19 5 20 -31 4z"/>
<path d="M1010 1750 c0 -5 5 -10 10 -10 6 0 10 5 10 10 0 6 -4 10 -10 10 -5 0
-10 -4 -10 -10z"/>
<path d="M445 292 c-3 -3 -5 -56 -5 -119 l0 -113 60 0 c48 0 61 4 70 19 14 28
13 174 -2 193 -12 15 -111 31 -123 20z m89 -35 c14 -10 16 -25 14 -87 l-3 -75
-37 -3 -38 -3 0 84 c0 46 3 87 7 90 10 11 38 8 57 -6z"/>
<path d="M675 288 c-11 -34 -55 -204 -55 -215 0 -7 7 -13 15 -13 8 0 15 7 15
15 0 11 11 15 40 15 29 0 40 -4 40 -15 0 -8 7 -15 15 -15 19 0 19 -6 -13 124
-25 101 -45 138 -57 104z m34 -125 c9 -43 9 -43 -20 -43 -27 0 -29 2 -23 28
11 43 26 78 30 67 2 -5 8 -29 13 -52z"/>
<path d="M777 293 c-13 -12 -7 -22 16 -25 21 -3 22 -8 25 -105 2 -81 6 -103
17 -103 11 0 15 22 17 103 3 97 4 102 26 105 12 2 22 10 22 18 0 10 -14 14
-58 14 -32 0 -62 -3 -65 -7z"/>
<path d="M965 288 c-6 -18 -55 -215 -55 -222 0 -13 28 -5 34 9 9 24 72 20 79
-5 7 -27 27 -25 26 3 0 12 -13 67 -27 121 -25 92 -45 126 -57 94z m29 -104 c4
-19 10 -42 13 -50 4 -10 -3 -14 -22 -14 -26 0 -27 2 -21 38 3 20 6 43 6 50 0
27 18 10 24 -24z"/>
<path d="M1174 286 c-3 -7 -3 -61 -2 -122 l3 -109 50 3 c75 5 88 25 83 129 -1
45 -8 87 -15 94 -17 17 -113 21 -119 5z m90 -32 c11 -10 16 -34 16 -74 0 -79
-5 -90 -46 -90 l-34 0 0 83 c0 46 3 87 7 90 11 12 41 7 57 -9z"/>
<path d="M1367 293 c-4 -3 -7 -57 -7 -120 0 -94 3 -113 15 -113 13 0 15 20 15
120 0 110 -5 132 -23 113z"/>
<path d="M1437 293 c-6 -9 6 -65 39 -181 8 -28 20 -52 27 -52 10 0 77 217 70
227 -11 14 -21 -3 -44 -72 -28 -83 -30 -83 -49 2 -12 55 -33 92 -43 76z"/>
<path d="M1620 179 l0 -119 60 0 c46 0 60 3 60 14 0 11 -14 16 -47 18 -46 3
-48 4 -48 33 0 28 3 30 43 33 53 4 52 26 0 30 -31 3 -36 7 -40 33 -6 37 -3 39
43 39 21 0 41 5 44 10 8 12 -6 17 -67 23 l-48 5 0 -119z"/>
<path d="M1785 292 c-3 -3 -5 -56 -5 -119 0 -94 3 -113 15 -113 11 0 15 12 15
44 0 32 5 46 17 50 21 8 29 0 46 -49 8 -22 21 -41 30 -43 14 -3 14 1 -1 47
-14 47 -14 52 1 69 18 19 22 68 9 89 -15 24 -109 43 -127 25z m100 -67 c0 -27
-3 -30 -37 -33 -38 -3 -38 -3 -38 33 0 36 0 36 38 33 34 -3 37 -6 37 -33z"/>
<path d="M1980 280 c-38 -38 -22 -87 40 -118 40 -20 50 -50 24 -69 -24 -17
-30 -17 -53 8 -26 29 -44 22 -28 -11 26 -52 109 -49 123 5 11 43 -4 73 -45 95
-45 23 -53 32 -45 53 9 23 35 29 54 12 21 -19 40 -19 40 -1 0 44 -75 61 -110
26z"/>
<path d="M2147 293 c-4 -3 -7 -57 -7 -119 0 -90 3 -113 15 -118 13 -5 15 13
15 119 0 114 -5 137 -23 118z"/>
<path d="M2227 293 c-16 -15 -6 -33 18 -33 l25 0 0 -100 c0 -93 1 -100 20
-100 18 0 19 5 13 99 -6 99 -6 99 18 103 13 1 25 11 27 21 3 15 -5 17 -56 17
-32 0 -62 -3 -65 -7z"/>
<path d="M2380 291 c0 -5 13 -38 30 -73 20 -42 30 -78 30 -110 0 -36 4 -48 15
-48 11 0 15 12 15 50 0 31 10 75 25 112 28 69 30 78 14 78 -5 0 -19 -22 -31
-50 -11 -27 -24 -50 -27 -50 -4 0 -13 17 -20 38 -8 20 -18 43 -23 50 -12 14
-28 16 -28 3z"/>
<path d="M3060 178 l0 -118 53 0 c75 0 85 14 85 118 -1 86 -11 111 -46 113 -9
0 -34 2 -54 3 l-38 2 0 -118z m77 86 c48 -13 34 -74 -17 -74 -27 0 -30 3 -30
33 0 46 6 52 47 41z m21 -113 c8 -4 12 -19 10 -32 -2 -20 -10 -25 -40 -27 -37
-3 -38 -3 -38 32 0 33 3 36 28 36 15 0 33 -4 40 -9z"/>
<path d="M2660 175 l0 -115 65 0 c51 0 65 3 65 15 0 11 -12 15 -50 15 l-50 0
0 100 c0 82 -3 100 -15 100 -12 0 -15 -19 -15 -115z"/>
<path d="M2905 277 c-3 -7 -18 -58 -34 -115 -22 -77 -25 -102 -15 -102 7 0 18
9 24 20 7 13 21 20 40 20 19 0 33 -7 40 -20 12 -23 45 -28 37 -6 -3 7 -18 59
-33 115 -18 66 -32 101 -41 101 -7 0 -16 -6 -18 -13z m32 -110 c5 -33 3 -37
-16 -37 -22 0 -25 9 -15 59 8 39 22 28 31 -22z"/>
</g>
</svg>
