<svg width="31" height="30" viewBox="0 0 31 30" fill="none" xmlns="http://www.w3.org/2000/svg">
<path d="M19.2507 27.5V22.5C19.4246 20.9341 18.9756 19.3627 18.0007 18.125C21.7507 18.125 25.5007 15.625 25.5007 11.25C25.6007 9.6875 25.1632 8.15 24.2507 6.875C24.6007 5.4375 24.6007 3.9375 24.2507 2.5C24.2507 2.5 23.0007 2.5 20.5007 4.375C17.2007 3.75 13.8007 3.75 10.5007 4.375C8.00072 2.5 6.75072 2.5 6.75072 2.5C6.37572 3.9375 6.37572 5.4375 6.75072 6.875C5.84056 8.14485 5.39881 9.69098 5.50072 11.25C5.50072 15.625 9.25072 18.125 13.0007 18.125C12.5132 18.7375 12.1507 19.4375 11.9382 20.1875C11.7257 20.9375 11.6632 21.725 11.7507 22.5V27.5" stroke="#333333" stroke-width="2" stroke-linecap="round" stroke-linejoin="round"/>
<path d="M11.75 22.5C6.1125 25 5.5 20 3 20" stroke="#333333" stroke-width="2" stroke-linecap="round" stroke-linejoin="round"/>
</svg>
