<svg width="25" height="24" viewBox="0 0 25 24" fill="none" xmlns="http://www.w3.org/2000/svg">
<path d="M12.2501 14C14.4561 14 16.2501 12.206 16.2501 10C16.2501 7.794 14.4561 6 12.2501 6C10.0441 6 8.25006 7.794 8.25006 10C8.25006 12.206 10.0441 14 12.2501 14ZM12.2501 8C13.3531 8 14.2501 8.897 14.2501 10C14.2501 11.103 13.3531 12 12.2501 12C11.1471 12 10.2501 11.103 10.2501 10C10.2501 8.897 11.1471 8 12.2501 8ZM11.6701 21.814C11.8393 21.9349 12.0421 21.9998 12.2501 21.9998C12.4581 21.9998 12.6608 21.9349 12.8301 21.814C13.1341 21.599 20.2791 16.44 20.2501 10C20.2501 5.589 16.6611 2 12.2501 2C7.83909 2 4.25009 5.589 4.25009 9.995C4.22109 16.44 11.3661 21.599 11.6701 21.814ZM12.2501 4C15.5591 4 18.2501 6.691 18.2501 10.005C18.2711 14.443 13.8621 18.428 12.2501 19.735C10.6391 18.427 6.22909 14.441 6.25009 10C6.25009 6.691 8.94109 4 12.2501 4Z" fill="#333333"/>
<path d="M12.2501 14C14.4561 14 16.2501 12.206 16.2501 10C16.2501 7.794 14.4561 6 12.2501 6C10.0441 6 8.25006 7.794 8.25006 10C8.25006 12.206 10.0441 14 12.2501 14ZM12.2501 8C13.3531 8 14.2501 8.897 14.2501 10C14.2501 11.103 13.3531 12 12.2501 12C11.1471 12 10.2501 11.103 10.2501 10C10.2501 8.897 11.1471 8 12.2501 8ZM11.6701 21.814C11.8393 21.9349 12.0421 21.9998 12.2501 21.9998C12.4581 21.9998 12.6608 21.9349 12.8301 21.814C13.1341 21.599 20.2791 16.44 20.2501 10C20.2501 5.589 16.6611 2 12.2501 2C7.83909 2 4.25009 5.589 4.25009 9.995C4.22109 16.44 11.3661 21.599 11.6701 21.814ZM12.2501 4C15.5591 4 18.2501 6.691 18.2501 10.005C18.2711 14.443 13.8621 18.428 12.2501 19.735C10.6391 18.427 6.22909 14.441 6.25009 10C6.25009 6.691 8.94109 4 12.2501 4Z" fill="#333333"/>
</svg>
