<svg width="25" height="24" viewBox="0 0 25 24" fill="none" xmlns="http://www.w3.org/2000/svg">
<path d="M18.2083 12.293C18.1155 12.2 18.0053 12.1263 17.884 12.076C17.7627 12.0257 17.6326 11.9998 17.5013 11.9998C17.37 11.9998 17.2399 12.0257 17.1186 12.076C16.9973 12.1263 16.8871 12.2 16.7943 12.293L15.2003 13.887C14.4613 13.667 13.0823 13.167 12.2083 12.293C11.3343 11.419 10.8343 10.04 10.6143 9.30096L12.2083 7.70696C12.3013 7.61417 12.375 7.50397 12.4253 7.38265C12.4756 7.26134 12.5015 7.13129 12.5015 6.99996C12.5015 6.86862 12.4756 6.73858 12.4253 6.61726C12.375 6.49595 12.3013 6.38575 12.2083 6.29296L8.20831 2.29296C8.11552 2.20001 8.00532 2.12627 7.884 2.07596C7.76269 2.02565 7.63264 1.99976 7.50131 1.99976C7.36998 1.99976 7.23993 2.02565 7.11862 2.07596C6.9973 2.12627 6.8871 2.20001 6.79431 2.29296L4.08231 5.00496C3.70231 5.38496 3.48831 5.90696 3.49631 6.43996C3.51931 7.86396 3.89631 12.81 7.79431 16.708C11.6923 20.606 16.6383 20.982 18.0633 21.006H18.0913C18.6193 21.006 19.1183 20.798 19.4963 20.42L22.2083 17.708C22.3013 17.6152 22.375 17.505 22.4253 17.3837C22.4756 17.2623 22.5015 17.1323 22.5015 17.001C22.5015 16.8696 22.4756 16.7396 22.4253 16.6183C22.375 16.4969 22.3013 16.3867 22.2083 16.294L18.2083 12.293ZM18.0813 19.005C16.8333 18.984 12.5633 18.649 9.20831 15.293C5.84231 11.927 5.51631 7.64196 5.49631 6.41896L7.50131 4.41396L10.0873 6.99996L8.79431 8.29296C8.67677 8.41041 8.59035 8.55529 8.54286 8.71453C8.49537 8.87376 8.48831 9.04231 8.52231 9.20496C8.54631 9.31996 9.13331 12.047 10.7933 13.707C12.4533 15.367 15.1803 15.954 15.2953 15.978C15.4579 16.0129 15.6266 16.0064 15.786 15.9591C15.9453 15.9117 16.0902 15.825 16.2073 15.707L17.5013 14.414L20.0873 17L18.0813 19.005Z" fill="#333333"/>
</svg>
