<svg width="20" height="20" viewBox="0 0 20 20" fill="none" xmlns="http://www.w3.org/2000/svg">
<path d="M10.0003 1.66666C5.40533 1.66666 1.66699 5.405 1.66699 10C1.66699 14.595 5.40533 18.3333 10.0003 18.3333C14.5953 18.3333 18.3337 14.595 18.3337 10C18.3337 5.405 14.5953 1.66666 10.0003 1.66666ZM10.0003 16.6667C6.32449 16.6667 3.33366 13.6758 3.33366 10C3.33366 6.32416 6.32449 3.33333 10.0003 3.33333C13.6762 3.33333 16.667 6.32416 16.667 10C16.667 13.6758 13.6762 16.6667 10.0003 16.6667ZM10.8337 5.83333H9.16699V10.345L11.9112 13.0892L13.0895 11.9108L10.8337 9.655V5.83333Z" fill="#333333"/>
<path d="M10.0003 1.66666C5.40533 1.66666 1.66699 5.405 1.66699 10C1.66699 14.595 5.40533 18.3333 10.0003 18.3333C14.5953 18.3333 18.3337 14.595 18.3337 10C18.3337 5.405 14.5953 1.66666 10.0003 1.66666ZM10.0003 16.6667C6.32449 16.6667 3.33366 13.6758 3.33366 10C3.33366 6.32416 6.32449 3.33333 10.0003 3.33333C13.6762 3.33333 16.667 6.32416 16.667 10C16.667 13.6758 13.6762 16.6667 10.0003 16.6667ZM10.8337 5.83333H9.16699V10.345L11.9112 13.0892L13.0895 11.9108L10.8337 9.655V5.83333Z" fill="#333333"/>
</svg>
