<?xml version="1.0" encoding="UTF-8"?><svg id="Layer_2" xmlns="http://www.w3.org/2000/svg" viewBox="0 0 381.04 74.98"><g id="Editable_content"><g><g><path d="M.74,70.96v-12.11H2.89v12.11H.74Z"/><path d="M5.96,70.96v-9.09h1.76l.15,1.22h.07c.41-.39,.85-.73,1.32-1.02,.48-.28,1.03-.43,1.66-.43,.97,0,1.68,.31,2.13,.94s.67,1.52,.67,2.68v5.7h-2.13v-5.42c0-.75-.11-1.28-.33-1.59-.22-.31-.59-.46-1.09-.46-.4,0-.74,.1-1.05,.29-.3,.19-.64,.47-1.03,.84v6.35h-2.13Z"/><path d="M19.72,71.18c-.53,0-.98-.08-1.34-.24s-.66-.39-.89-.68c-.23-.29-.39-.64-.5-1.04-.1-.4-.16-.85-.16-1.34v-4.33h-1.3v-1.59l1.41-.09,.26-2.48h1.78v2.48h2.31v1.68h-2.31v4.33c0,1.06,.43,1.59,1.28,1.59,.16,0,.32-.02,.49-.06,.17-.04,.32-.09,.45-.15l.37,1.57c-.25,.09-.53,.16-.84,.23-.31,.07-.65,.1-1.01,.1Z"/><path d="M26.97,71.18c-.63,0-1.22-.11-1.76-.32-.54-.22-1.02-.53-1.43-.93s-.73-.9-.95-1.49c-.23-.59-.34-1.26-.34-2.01s.12-1.41,.35-2c.23-.59,.55-1.09,.93-1.5,.39-.41,.84-.72,1.34-.94s1.02-.33,1.56-.33c.62,0,1.16,.1,1.63,.31,.47,.21,.86,.51,1.18,.89,.31,.38,.55,.84,.71,1.37,.16,.53,.24,1.11,.24,1.74,0,.21,0,.41-.03,.59-.02,.19-.04,.33-.06,.44h-5.78c.1,.81,.39,1.44,.86,1.88s1.08,.66,1.82,.66c.4,0,.76-.06,1.1-.18,.34-.12,.68-.28,1.01-.49l.72,1.33c-.43,.28-.91,.52-1.44,.7-.53,.19-1.09,.28-1.67,.28Zm-2.43-5.63h4.04c0-.7-.15-1.26-.45-1.66-.3-.4-.77-.6-1.4-.6-.54,0-1.02,.19-1.43,.57-.41,.38-.66,.94-.76,1.68Z"/><path d="M32.66,70.96v-9.09h1.76l.15,1.61h.07c.32-.59,.71-1.05,1.17-1.36,.46-.31,.93-.47,1.41-.47,.43,0,.78,.06,1.04,.19l-.37,1.85c-.16-.05-.31-.09-.44-.11-.14-.02-.3-.04-.5-.04-.36,0-.73,.14-1.13,.42-.4,.28-.73,.76-1.02,1.45v5.55h-2.13Z"/><path d="M39.75,70.96v-9.09h1.76l.15,1.22h.07c.41-.39,.85-.73,1.32-1.02,.48-.28,1.03-.43,1.66-.43,.97,0,1.68,.31,2.13,.94s.67,1.52,.67,2.68v5.7h-2.13v-5.42c0-.75-.11-1.28-.33-1.59-.22-.31-.59-.46-1.09-.46-.4,0-.74,.1-1.05,.29-.3,.19-.64,.47-1.03,.84v6.35h-2.13Z"/><path d="M52.5,71.18c-.8,0-1.45-.24-1.94-.73-.49-.49-.74-1.13-.74-1.93,0-.48,.1-.91,.31-1.29,.2-.38,.52-.7,.96-.97,.44-.27,.99-.5,1.67-.68,.67-.19,1.48-.33,2.42-.43-.01-.23-.05-.46-.1-.68-.06-.22-.15-.41-.28-.57-.13-.17-.3-.3-.51-.39-.21-.09-.47-.14-.78-.14-.44,0-.88,.09-1.31,.26s-.84,.38-1.25,.63l-.78-1.43c.51-.32,1.07-.6,1.7-.83,.63-.23,1.31-.35,2.04-.35,1.13,0,1.98,.34,2.55,1.01,.56,.67,.84,1.65,.84,2.92v5.39h-1.76l-.15-1h-.07c-.41,.35-.84,.64-1.31,.87-.46,.23-.97,.35-1.51,.35Zm.68-1.67c.37,0,.71-.09,1.01-.26,.3-.17,.63-.42,.97-.74v-2.04c-.62,.07-1.14,.17-1.55,.3-.42,.12-.76,.26-1.02,.42-.26,.15-.44,.33-.56,.53s-.17,.41-.17,.63c0,.41,.12,.7,.37,.89,.25,.18,.56,.28,.94,.28Z"/><path d="M62.94,71.18c-.53,0-.98-.08-1.34-.24s-.66-.39-.89-.68c-.23-.29-.39-.64-.5-1.04-.1-.4-.16-.85-.16-1.34v-4.33h-1.3v-1.59l1.41-.09,.26-2.48h1.78v2.48h2.31v1.68h-2.31v4.33c0,1.06,.43,1.59,1.28,1.59,.16,0,.32-.02,.49-.06,.17-.04,.32-.09,.45-.15l.37,1.57c-.25,.09-.53,.16-.84,.23-.31,.07-.65,.1-1.01,.1Z"/><path d="M67.68,60.28c-.38,0-.7-.11-.94-.33-.25-.22-.37-.51-.37-.87s.12-.65,.37-.88c.25-.23,.56-.34,.94-.34s.7,.11,.94,.34c.25,.23,.37,.52,.37,.88s-.12,.65-.37,.87-.56,.33-.94,.33Zm-1.07,10.68v-9.09h2.13v9.09h-2.13Z"/><path d="M75.36,71.18c-.57,0-1.11-.1-1.63-.31-.52-.21-.98-.52-1.38-.93s-.72-.91-.95-1.5c-.23-.59-.35-1.26-.35-2.02s.12-1.43,.35-2.02c.23-.59,.55-1.09,.95-1.5s.86-.72,1.38-.93,1.06-.32,1.63-.32,1.11,.11,1.64,.32c.52,.22,.98,.53,1.38,.93,.39,.41,.71,.91,.95,1.5s.36,1.27,.36,2.02-.12,1.43-.36,2.02c-.24,.59-.56,1.09-.95,1.5-.4,.41-.86,.72-1.38,.93-.52,.21-1.07,.31-1.64,.31Zm0-1.74c.67,0,1.19-.27,1.57-.82s.57-1.28,.57-2.19-.19-1.66-.57-2.21c-.38-.55-.91-.82-1.57-.82s-1.19,.27-1.56,.82c-.38,.55-.56,1.29-.56,2.21s.19,1.64,.56,2.19c.38,.55,.9,.82,1.56,.82Z"/><path d="M81.99,70.96v-9.09h1.76l.15,1.22h.07c.41-.39,.85-.73,1.32-1.02,.48-.28,1.03-.43,1.66-.43,.97,0,1.68,.31,2.13,.94s.67,1.52,.67,2.68v5.7h-2.13v-5.42c0-.75-.11-1.28-.33-1.59-.22-.31-.59-.46-1.09-.46-.4,0-.74,.1-1.05,.29-.3,.19-.64,.47-1.03,.84v6.35h-2.13Z"/><path d="M94.75,71.18c-.8,0-1.45-.24-1.94-.73-.49-.49-.74-1.13-.74-1.93,0-.48,.1-.91,.31-1.29,.2-.38,.52-.7,.96-.97,.44-.27,.99-.5,1.67-.68,.67-.19,1.48-.33,2.42-.43-.01-.23-.05-.46-.1-.68-.06-.22-.15-.41-.28-.57-.13-.17-.3-.3-.51-.39-.21-.09-.47-.14-.78-.14-.44,0-.88,.09-1.31,.26s-.84,.38-1.25,.63l-.78-1.43c.51-.32,1.07-.6,1.7-.83,.63-.23,1.31-.35,2.04-.35,1.13,0,1.98,.34,2.55,1.01,.56,.67,.84,1.65,.84,2.92v5.39h-1.76l-.15-1h-.07c-.41,.35-.84,.64-1.31,.87-.46,.23-.97,.35-1.51,.35Zm.68-1.67c.37,0,.71-.09,1.01-.26,.3-.17,.63-.42,.97-.74v-2.04c-.62,.07-1.14,.17-1.55,.3-.42,.12-.76,.26-1.02,.42-.26,.15-.44,.33-.56,.53s-.17,.41-.17,.63c0,.41,.12,.7,.37,.89,.25,.18,.56,.28,.94,.28Z"/><path d="M104.36,71.18c-.77,0-1.3-.23-1.61-.68-.31-.46-.46-1.08-.46-1.87v-10.74h2.13v10.85c0,.26,.05,.44,.15,.55s.2,.16,.31,.16h.14s.11-.01,.19-.04l.28,1.59c-.28,.12-.66,.18-1.13,.18Z"/><path d="M114.07,71.18c-.85,0-1.57-.17-2.16-.52-.59-.35-1.07-.86-1.45-1.54l1.48-1.09c.25,.44,.53,.77,.85,.97,.32,.2,.67,.31,1.04,.31,.57,0,.99-.17,1.28-.52,.28-.35,.43-.95,.43-1.81v-8.13h2.15v8.31c0,.56-.07,1.08-.2,1.56-.14,.49-.35,.91-.65,1.28s-.67,.65-1.13,.86c-.46,.21-1,.31-1.63,.31Z"/><path d="M124.42,71.18c-.57,0-1.11-.1-1.63-.31-.52-.21-.98-.52-1.38-.93s-.72-.91-.95-1.5c-.23-.59-.35-1.26-.35-2.02s.12-1.43,.35-2.02c.23-.59,.55-1.09,.95-1.5s.86-.72,1.38-.93,1.06-.32,1.63-.32,1.11,.11,1.64,.32c.52,.22,.98,.53,1.38,.93,.39,.41,.71,.91,.95,1.5s.36,1.27,.36,2.02-.12,1.43-.36,2.02c-.24,.59-.56,1.09-.95,1.5-.4,.41-.86,.72-1.38,.93-.52,.21-1.07,.31-1.64,.31Zm0-1.74c.67,0,1.19-.27,1.57-.82s.57-1.28,.57-2.19-.19-1.66-.57-2.21c-.38-.55-.91-.82-1.57-.82s-1.19,.27-1.56,.82c-.38,.55-.56,1.29-.56,2.21s.19,1.64,.56,2.19c.38,.55,.9,.82,1.56,.82Z"/><path d="M133.75,71.18c-.97,0-1.68-.31-2.13-.93s-.67-1.52-.67-2.68v-5.7h2.13v5.42c0,.75,.11,1.28,.33,1.59,.22,.31,.58,.46,1.07,.46,.39,0,.74-.1,1.05-.3,.3-.2,.63-.52,.97-.96v-6.22h2.13v9.09h-1.74l-.17-1.33h-.06c-.4,.47-.82,.85-1.29,1.13-.46,.28-1.01,.43-1.64,.43Z"/><path d="M141.53,70.96v-9.09h1.76l.15,1.61h.07c.32-.59,.71-1.05,1.17-1.36,.46-.31,.93-.47,1.41-.47,.43,0,.78,.06,1.04,.19l-.37,1.85c-.16-.05-.31-.09-.44-.11-.14-.02-.3-.04-.5-.04-.36,0-.73,.14-1.13,.42-.4,.28-.73,.76-1.02,1.45v5.55h-2.13Z"/><path d="M148.62,70.96v-9.09h1.76l.15,1.22h.07c.41-.39,.85-.73,1.32-1.02,.48-.28,1.03-.43,1.66-.43,.97,0,1.68,.31,2.13,.94s.67,1.52,.67,2.68v5.7h-2.13v-5.42c0-.75-.11-1.28-.33-1.59-.22-.31-.59-.46-1.09-.46-.4,0-.74,.1-1.05,.29-.3,.19-.64,.47-1.03,.84v6.35h-2.13Z"/><path d="M161.37,71.18c-.8,0-1.45-.24-1.94-.73-.49-.49-.74-1.13-.74-1.93,0-.48,.1-.91,.31-1.29,.2-.38,.52-.7,.96-.97,.44-.27,.99-.5,1.67-.68,.67-.19,1.48-.33,2.42-.43-.01-.23-.05-.46-.1-.68-.06-.22-.15-.41-.28-.57-.13-.17-.3-.3-.51-.39-.21-.09-.47-.14-.78-.14-.44,0-.88,.09-1.31,.26s-.84,.38-1.25,.63l-.78-1.43c.51-.32,1.07-.6,1.7-.83,.63-.23,1.31-.35,2.04-.35,1.13,0,1.98,.34,2.55,1.01,.56,.67,.84,1.65,.84,2.92v5.39h-1.76l-.15-1h-.07c-.41,.35-.84,.64-1.31,.87-.46,.23-.97,.35-1.51,.35Zm.68-1.67c.37,0,.71-.09,1.01-.26,.3-.17,.63-.42,.97-.74v-2.04c-.62,.07-1.14,.17-1.55,.3-.42,.12-.76,.26-1.02,.42-.26,.15-.44,.33-.56,.53s-.17,.41-.17,.63c0,.41,.12,.7,.37,.89,.25,.18,.56,.28,.94,.28Z"/><path d="M170.98,71.18c-.77,0-1.3-.23-1.61-.68-.31-.46-.46-1.08-.46-1.87v-10.74h2.13v10.85c0,.26,.05,.44,.15,.55s.2,.16,.31,.16h.14s.11-.01,.19-.04l.28,1.59c-.28,.12-.66,.18-1.13,.18Z"/><path d="M181.72,71.18c-.57,0-1.11-.1-1.63-.31-.52-.21-.98-.52-1.38-.93s-.72-.91-.95-1.5c-.23-.59-.35-1.26-.35-2.02s.12-1.43,.35-2.02c.23-.59,.55-1.09,.95-1.5s.86-.72,1.38-.93,1.06-.32,1.63-.32,1.11,.11,1.64,.32c.52,.22,.98,.53,1.38,.93,.39,.41,.71,.91,.95,1.5s.36,1.27,.36,2.02-.12,1.43-.36,2.02c-.24,.59-.56,1.09-.95,1.5-.4,.41-.86,.72-1.38,.93-.52,.21-1.07,.31-1.64,.31Zm0-1.74c.67,0,1.19-.27,1.57-.82s.57-1.28,.57-2.19-.19-1.66-.57-2.21c-.38-.55-.91-.82-1.57-.82s-1.19,.27-1.56,.82c-.38,.55-.56,1.29-.56,2.21s.19,1.64,.56,2.19c.38,.55,.9,.82,1.56,.82Z"/><path d="M188.64,70.96v-7.41h-1.22v-1.59l1.22-.09v-.94c0-.47,.06-.9,.17-1.31s.29-.75,.54-1.04c.25-.29,.56-.51,.94-.68,.38-.16,.84-.24,1.38-.24,.32,0,.63,.03,.92,.09,.29,.06,.54,.14,.75,.22l-.41,1.59c-.33-.15-.67-.22-1-.22-.77,0-1.15,.51-1.15,1.54v.98h1.78v1.68h-1.78v7.41h-2.13Z"/><path d="M203.1,71.18c-.79,0-1.51-.15-2.17-.43-.65-.29-1.22-.71-1.68-1.26-.47-.55-.83-1.21-1.09-1.99-.26-.78-.39-1.66-.39-2.65s.13-1.85,.39-2.62c.26-.77,.62-1.42,1.09-1.95,.47-.53,1.03-.94,1.68-1.22,.65-.28,1.38-.43,2.17-.43s1.51,.14,2.17,.43c.65,.28,1.22,.69,1.69,1.22,.48,.53,.84,1.18,1.1,1.95s.39,1.64,.39,2.62-.13,1.87-.39,2.65c-.26,.78-.63,1.44-1.1,1.99-.48,.55-1.04,.97-1.69,1.26s-1.38,.43-2.17,.43Zm0-1.87c.48,0,.91-.1,1.3-.31,.38-.21,.71-.51,.98-.9,.27-.39,.48-.86,.63-1.41,.15-.55,.22-1.16,.22-1.84,0-1.36-.28-2.42-.84-3.19-.56-.77-1.32-1.16-2.29-1.16s-1.73,.39-2.29,1.16-.84,1.84-.84,3.19c0,.68,.07,1.29,.22,1.84,.15,.55,.36,1.02,.63,1.41,.27,.39,.6,.69,.98,.9,.38,.21,.81,.31,1.3,.31Z"/><path d="M210.88,70.96v-9.09h1.76l.15,1.61h.07c.32-.59,.71-1.05,1.17-1.36,.46-.31,.93-.47,1.41-.47,.43,0,.78,.06,1.04,.19l-.37,1.85c-.16-.05-.31-.09-.44-.11-.14-.02-.3-.04-.5-.04-.36,0-.73,.14-1.13,.42-.4,.28-.73,.76-1.02,1.45v5.55h-2.13Z"/><path d="M220.95,74.98c-.54,0-1.05-.05-1.51-.15-.46-.1-.86-.25-1.19-.44-.33-.2-.6-.44-.79-.74s-.29-.64-.29-1.04,.11-.74,.33-1.06,.54-.62,.96-.88v-.07c-.23-.15-.43-.35-.58-.59-.15-.25-.23-.56-.23-.93s.1-.68,.31-.97c.2-.29,.44-.53,.69-.71v-.07c-.31-.23-.58-.56-.82-.97-.24-.41-.36-.89-.36-1.43s.1-.98,.3-1.39,.46-.75,.79-1.03c.33-.28,.71-.49,1.14-.63,.43-.14,.89-.21,1.37-.21,.25,0,.48,.02,.71,.06,.23,.04,.44,.1,.62,.16h3.26v1.57h-1.67c.15,.17,.27,.39,.37,.66,.1,.27,.15,.56,.15,.88,0,.51-.09,.95-.27,1.33-.18,.38-.42,.7-.73,.96-.31,.26-.67,.46-1.09,.59-.42,.14-.87,.2-1.35,.2-.2,0-.4-.02-.61-.06-.21-.04-.42-.1-.63-.19-.14,.12-.24,.25-.32,.37-.08,.12-.12,.29-.12,.5,0,.26,.11,.46,.32,.61s.6,.22,1.16,.22h1.61c1.1,0,1.93,.18,2.49,.53,.56,.35,.84,.92,.84,1.71,0,.44-.11,.86-.34,1.26-.23,.39-.55,.73-.97,1.02-.42,.28-.93,.51-1.53,.68-.6,.17-1.27,.25-2.01,.25Zm.33-1.39c.74,0,1.34-.15,1.79-.44,.45-.29,.68-.63,.68-1.03,0-.36-.14-.6-.42-.72-.28-.12-.68-.19-1.19-.19h-1.24c-.49,0-.91-.04-1.24-.13-.47,.36-.7,.76-.7,1.2,0,.41,.21,.73,.62,.95,.41,.23,.98,.34,1.71,.34Zm-.22-6.85c.43,0,.8-.16,1.11-.47,.31-.31,.46-.77,.46-1.36s-.15-1.01-.45-1.32c-.3-.31-.68-.47-1.12-.47s-.82,.15-1.13,.46c-.31,.31-.46,.75-.46,1.33s.15,1.05,.46,1.36,.68,.47,1.13,.47Z"/><path d="M229.46,71.18c-.8,0-1.45-.24-1.94-.73-.49-.49-.74-1.13-.74-1.93,0-.48,.1-.91,.31-1.29,.2-.38,.52-.7,.96-.97,.44-.27,.99-.5,1.67-.68,.67-.19,1.48-.33,2.42-.43-.01-.23-.05-.46-.1-.68-.06-.22-.15-.41-.28-.57-.13-.17-.3-.3-.51-.39-.21-.09-.47-.14-.78-.14-.44,0-.88,.09-1.31,.26s-.84,.38-1.25,.63l-.78-1.43c.51-.32,1.07-.6,1.7-.83,.63-.23,1.31-.35,2.04-.35,1.13,0,1.98,.34,2.55,1.01,.56,.67,.84,1.65,.84,2.92v5.39h-1.76l-.15-1h-.07c-.41,.35-.84,.64-1.31,.87-.46,.23-.97,.35-1.51,.35Zm.68-1.67c.37,0,.71-.09,1.01-.26,.3-.17,.63-.42,.97-.74v-2.04c-.62,.07-1.14,.17-1.55,.3-.42,.12-.76,.26-1.02,.42-.26,.15-.44,.33-.56,.53s-.17,.41-.17,.63c0,.41,.12,.7,.37,.89,.25,.18,.56,.28,.94,.28Z"/><path d="M237,70.96v-9.09h1.76l.15,1.22h.07c.41-.39,.85-.73,1.32-1.02,.48-.28,1.03-.43,1.66-.43,.97,0,1.68,.31,2.13,.94s.67,1.52,.67,2.68v5.7h-2.13v-5.42c0-.75-.11-1.28-.33-1.59-.22-.31-.59-.46-1.09-.46-.4,0-.74,.1-1.05,.29-.3,.19-.64,.47-1.03,.84v6.35h-2.13Z"/><path d="M248.63,60.28c-.38,0-.7-.11-.94-.33-.25-.22-.37-.51-.37-.87s.12-.65,.37-.88c.25-.23,.56-.34,.94-.34s.7,.11,.94,.34c.25,.23,.37,.52,.37,.88s-.12,.65-.37,.87-.56,.33-.94,.33Zm-1.07,10.68v-9.09h2.13v9.09h-2.13Z"/><path d="M256.38,71.18c-.62,0-1.19-.1-1.73-.31-.54-.21-1-.52-1.4-.93-.4-.41-.7-.91-.93-1.5-.22-.59-.33-1.26-.33-2.02s.12-1.43,.37-2.02c.25-.59,.58-1.09,1-1.5,.42-.41,.9-.72,1.45-.93,.55-.22,1.13-.32,1.73-.32s1.1,.1,1.53,.3c.43,.2,.81,.44,1.14,.72l-1.04,1.39c-.25-.21-.49-.37-.73-.49-.24-.12-.5-.18-.79-.18-.74,0-1.34,.27-1.8,.82-.46,.55-.68,1.29-.68,2.21s.23,1.64,.68,2.19,1.03,.82,1.75,.82c.36,0,.69-.08,1.01-.23,.31-.15,.6-.34,.86-.55l.87,1.41c-.43,.37-.9,.65-1.42,.83-.51,.19-1.03,.28-1.55,.28Z"/><path d="M265.4,70.96v-12.11h7.29v1.81h-5.15v3.09h4.35v1.81h-4.35v3.57h5.33v1.81h-7.48Z"/><path d="M277.21,70.96l-3.17-9.09h2.17l1.44,4.72c.12,.44,.25,.89,.38,1.35,.13,.46,.26,.92,.38,1.39h.07c.14-.47,.27-.93,.39-1.39,.12-.46,.25-.91,.39-1.35l1.44-4.72h2.05l-3.09,9.09h-2.46Z"/><path d="M288.13,71.18c-.57,0-1.11-.1-1.63-.31-.52-.21-.98-.52-1.38-.93s-.72-.91-.95-1.5c-.23-.59-.35-1.26-.35-2.02s.12-1.43,.35-2.02c.23-.59,.55-1.09,.95-1.5s.86-.72,1.38-.93,1.06-.32,1.63-.32,1.11,.11,1.64,.32c.52,.22,.98,.53,1.38,.93,.39,.41,.71,.91,.95,1.5s.36,1.27,.36,2.02-.12,1.43-.36,2.02c-.24,.59-.56,1.09-.95,1.5-.4,.41-.86,.72-1.38,.93-.52,.21-1.07,.31-1.64,.31Zm0-1.74c.67,0,1.19-.27,1.57-.82s.57-1.28,.57-2.19-.19-1.66-.57-2.21c-.38-.55-.91-.82-1.57-.82s-1.19,.27-1.56,.82c-.38,.55-.56,1.29-.56,2.21s.19,1.64,.56,2.19c.38,.55,.9,.82,1.56,.82Z"/><path d="M296.83,71.18c-.77,0-1.3-.23-1.61-.68-.31-.46-.46-1.08-.46-1.87v-10.74h2.13v10.85c0,.26,.05,.44,.15,.55s.2,.16,.31,.16h.14s.11-.01,.19-.04l.28,1.59c-.28,.12-.66,.18-1.13,.18Z"/><path d="M302.66,71.18c-.97,0-1.68-.31-2.13-.93s-.67-1.52-.67-2.68v-5.7h2.13v5.42c0,.75,.11,1.28,.33,1.59,.22,.31,.58,.46,1.07,.46,.39,0,.74-.1,1.05-.3,.3-.2,.63-.52,.97-.96v-6.22h2.13v9.09h-1.74l-.17-1.33h-.06c-.4,.47-.82,.85-1.29,1.13-.46,.28-1.01,.43-1.64,.43Z"/><path d="M313.64,71.18c-.53,0-.98-.08-1.34-.24s-.66-.39-.89-.68c-.23-.29-.39-.64-.5-1.04-.1-.4-.16-.85-.16-1.34v-4.33h-1.3v-1.59l1.41-.09,.26-2.48h1.78v2.48h2.31v1.68h-2.31v4.33c0,1.06,.43,1.59,1.28,1.59,.16,0,.32-.02,.49-.06,.17-.04,.32-.09,.45-.15l.37,1.57c-.25,.09-.53,.16-.84,.23-.31,.07-.65,.1-1.01,.1Z"/><path d="M318.38,60.28c-.38,0-.7-.11-.94-.33-.25-.22-.37-.51-.37-.87s.12-.65,.37-.88c.25-.23,.56-.34,.94-.34s.7,.11,.94,.34c.25,.23,.37,.52,.37,.88s-.12,.65-.37,.87-.56,.33-.94,.33Zm-1.07,10.68v-9.09h2.13v9.09h-2.13Z"/><path d="M326.06,71.18c-.57,0-1.11-.1-1.63-.31-.52-.21-.98-.52-1.38-.93s-.72-.91-.95-1.5c-.23-.59-.35-1.26-.35-2.02s.12-1.43,.35-2.02c.23-.59,.55-1.09,.95-1.5s.86-.72,1.38-.93,1.06-.32,1.63-.32,1.11,.11,1.64,.32c.52,.22,.98,.53,1.38,.93,.39,.41,.71,.91,.95,1.5s.36,1.27,.36,2.02-.12,1.43-.36,2.02c-.24,.59-.56,1.09-.95,1.5-.4,.41-.86,.72-1.38,.93-.52,.21-1.07,.31-1.64,.31Zm0-1.74c.67,0,1.19-.27,1.57-.82s.57-1.28,.57-2.19-.19-1.66-.57-2.21c-.38-.55-.91-.82-1.57-.82s-1.19,.27-1.56,.82c-.38,.55-.56,1.29-.56,2.21s.19,1.64,.56,2.19c.38,.55,.9,.82,1.56,.82Z"/><path d="M332.69,70.96v-9.09h1.76l.15,1.22h.07c.41-.39,.85-.73,1.32-1.02,.48-.28,1.03-.43,1.66-.43,.97,0,1.68,.31,2.13,.94s.67,1.52,.67,2.68v5.7h-2.13v-5.42c0-.75-.11-1.28-.33-1.59-.22-.31-.59-.46-1.09-.46-.4,0-.74,.1-1.05,.29-.3,.19-.64,.47-1.03,.84v6.35h-2.13Z"/></g><g><path d="M0,42.37c5.9,0,6.75-1.21,6.75-8.32V10.95C6.75,3.84,5.9,2.7,0,2.7V1.21H32.41l.64,9.38h-1.49l-.36-1.42c-.99-3.7-1.71-5.33-8.25-5.33H12.44V19.97h3.55c7.11,0,8.24-.85,8.24-6.82h1.49V29.43h-1.49c0-5.97-1.14-6.82-8.24-6.82h-3.55v10.38c0,7.11,.85,8.25,6.75,8.25h6.11c6.54,0,7.32-1.64,8.25-5.4l.35-1.42h1.49l-.57,9.45H0v-1.49Z"/><path d="M42.43,8.88c-2.2-5.05-2.56-6.18-8.46-6.18V1.21h19.69v1.49c-5.9,0-7.25,1.49-5.54,5.4l12.08,27.65,11.94-27.65c1.71-3.84,.35-5.4-5.55-5.4V1.21h16.56v1.49c-5.9,0-6.26,1.14-8.46,6.18l-15.64,36.18h-.92L42.43,8.88Z"/><path d="M80.81,22.53c0-12.37,10.66-22.53,23.74-22.53s23.67,10.16,23.67,22.53-10.66,22.53-23.67,22.53-23.74-10.17-23.74-22.53Zm40.66,0c0-8.81-4.69-19.76-16.92-19.76s-16.99,10.95-16.99,19.76,4.69,19.69,16.99,19.69,16.92-10.87,16.92-19.69Z"/><path d="M131.98,42.37c5.9,0,6.75-1.21,6.75-8.32V10.95c0-7.11-.85-8.24-6.75-8.24V1.21h19.19v1.49c-5.9,0-6.75,1.14-6.75,8.24v22.04c0,7.11,.85,8.25,6.75,8.25h8.53c6.47,0,7.25-1.64,8.17-5.4l.36-1.42h1.49l-.57,9.45h-37.18v-1.49Z"/><path d="M173.49,28.01V10.95c0-7.11-.85-8.24-6.75-8.24V1.21h19.19v1.49c-5.9,0-6.75,1.14-6.75,8.24V28.36c0,9.24,5.33,13.51,12.44,13.51,7.46,0,13.08-4.27,13.08-13.51V10.95c0-7.11-.92-8.24-6.82-8.24V1.21h16.63v1.49c-5.9,0-6.82,1.14-6.82,8.24V28.01c0,11.16-7.68,17.06-17.13,17.06s-17.06-5.9-17.06-17.06Z"/><path d="M227.01,42.37c5.9,0,6.82-1.21,6.82-8.32V3.98h-9.24c-6.54,0-7.25,1.63-8.24,5.4l-.36,1.42h-1.49l.64-9.6h43.08l.64,9.6h-1.49l-.36-1.42c-.99-3.77-1.71-5.4-8.24-5.4h-9.24v30.07c0,7.11,.92,8.32,6.82,8.32v1.49h-19.33v-1.49Z"/><path d="M260.13,42.37c5.9,0,6.75-1.21,6.75-8.32V10.95c0-7.11-.85-8.24-6.75-8.24V1.21h19.19v1.49c-5.9,0-6.75,1.14-6.75,8.24v23.1c0,7.11,.85,8.32,6.75,8.32v1.49h-19.19v-1.49Z"/><path d="M283.09,22.53c0-12.37,10.66-22.53,23.74-22.53s23.67,10.16,23.67,22.53-10.66,22.53-23.67,22.53-23.74-10.17-23.74-22.53Zm40.66,0c0-8.81-4.69-19.76-16.92-19.76s-16.99,10.95-16.99,19.76,4.69,19.69,16.99,19.69,16.92-10.87,16.92-19.69Z"/><path d="M343.65,9.31v24.74c0,7.11,.92,8.32,6.82,8.32v1.49h-16.21v-1.49c5.9,0,6.75-1.21,6.75-8.32V10.95c0-7.11-.85-8.24-6.75-8.24V1.21h10.02l27.3,33.84V10.95c0-7.11-.85-8.24-6.75-8.24V1.21h16.21v1.49c-5.9,0-6.82,1.14-6.82,8.24V45.07h-1.64l-28.93-35.75Z"/></g></g></g></svg>