<svg width="26" height="26" viewBox="0 0 26 26" fill="none" xmlns="http://www.w3.org/2000/svg">
<path d="M23.25 0.499054H8.25C6.875 0.499054 5.75 1.62405 5.75 2.99905V17.9991C5.75 19.3741 6.875 20.4991 8.25 20.4991H23.25C24.625 20.4991 25.75 19.3741 25.75 17.9991V2.99905C25.75 1.62405 24.625 0.499054 23.25 0.499054ZM23.25 17.9991H8.25V2.99905H23.25V17.9991ZM3.25 5.49905H0.75V22.9991C0.75 24.3741 1.875 25.4991 3.25 25.4991H20.75V22.9991H3.25V5.49905ZM18.25 12.9991V9.24905C18.25 8.56155 17.6875 7.99905 17 7.99905H14.5V14.2491H17C17.6875 14.2491 18.25 13.6866 18.25 12.9991ZM15.75 9.24905H17V12.9991H15.75V9.24905ZM20.75 11.7491H22V10.4991H20.75V9.24905H22V7.99905H19.5V14.2491H20.75V11.7491ZM10.75 11.7491H12C12.6875 11.7491 13.25 11.1866 13.25 10.4991V9.24905C13.25 8.56155 12.6875 7.99905 12 7.99905H9.5V14.2491H10.75V11.7491ZM10.75 9.24905H12V10.4991H10.75V9.24905Z" fill="#333333"/>
</svg>
