<svg width="258" height="31" viewBox="0 0 258 31" fill="none" xmlns="http://www.w3.org/2000/svg">
<path d="M7.01562 24H2.0625L2.09375 20.3438H7.01562C8.24479 20.3438 9.28125 20.0677 10.125 19.5156C10.9688 18.9531 11.6042 18.1354 12.0312 17.0625C12.4688 15.9896 12.6875 14.6927 12.6875 13.1719V12.0625C12.6875 10.8958 12.5625 9.86979 12.3125 8.98438C12.0729 8.09896 11.7135 7.35417 11.2344 6.75C10.7552 6.14583 10.1667 5.69271 9.46875 5.39062C8.77083 5.07812 7.96875 4.92188 7.0625 4.92188H1.96875V1.25H7.0625C8.58333 1.25 9.97396 1.51042 11.2344 2.03125C12.5052 2.54167 13.6042 3.27604 14.5312 4.23438C15.4583 5.19271 16.1719 6.33854 16.6719 7.67188C17.1823 8.99479 17.4375 10.4688 17.4375 12.0938V13.1719C17.4375 14.7865 17.1823 16.2604 16.6719 17.5938C16.1719 18.9271 15.4583 20.0729 14.5312 21.0312C13.6146 21.9792 12.5156 22.7135 11.2344 23.2344C9.96354 23.7448 8.55729 24 7.01562 24ZM4.71875 1.25V24H0.03125V1.25H4.71875ZM29.6875 20.1875V12.6562C29.6875 12.1146 29.599 11.651 29.4219 11.2656C29.2448 10.8698 28.9688 10.5625 28.5938 10.3438C28.2292 10.125 27.7552 10.0156 27.1719 10.0156C26.6719 10.0156 26.2396 10.1042 25.875 10.2812C25.5104 10.4479 25.2292 10.6927 25.0312 11.0156C24.8333 11.3281 24.7344 11.6979 24.7344 12.125H20.2344C20.2344 11.4062 20.401 10.724 20.7344 10.0781C21.0677 9.43229 21.5521 8.86458 22.1875 8.375C22.8229 7.875 23.5781 7.48438 24.4531 7.20312C25.3385 6.92188 26.3281 6.78125 27.4219 6.78125C28.7344 6.78125 29.901 7 30.9219 7.4375C31.9427 7.875 32.7448 8.53125 33.3281 9.40625C33.9219 10.2812 34.2188 11.375 34.2188 12.6875V19.9219C34.2188 20.849 34.276 21.6094 34.3906 22.2031C34.5052 22.7865 34.6719 23.2969 34.8906 23.7344V24H30.3438C30.125 23.5417 29.9583 22.9688 29.8438 22.2812C29.7396 21.5833 29.6875 20.8854 29.6875 20.1875ZM30.2812 13.7031L30.3125 16.25H27.7969C27.2031 16.25 26.6875 16.3177 26.25 16.4531C25.8125 16.5885 25.4531 16.7812 25.1719 17.0312C24.8906 17.2708 24.6823 17.5521 24.5469 17.875C24.4219 18.1979 24.3594 18.5521 24.3594 18.9375C24.3594 19.3229 24.4479 19.6719 24.625 19.9844C24.8021 20.2865 25.0573 20.526 25.3906 20.7031C25.724 20.8698 26.1146 20.9531 26.5625 20.9531C27.2396 20.9531 27.8281 20.8177 28.3281 20.5469C28.8281 20.276 29.2135 19.9427 29.4844 19.5469C29.7656 19.151 29.9115 18.776 29.9219 18.4219L31.1094 20.3281C30.9427 20.7552 30.7135 21.1979 30.4219 21.6562C30.1406 22.1146 29.7812 22.5469 29.3438 22.9531C28.9062 23.349 28.3802 23.6771 27.7656 23.9375C27.151 24.1875 26.4219 24.3125 25.5781 24.3125C24.5052 24.3125 23.5312 24.099 22.6562 23.6719C21.7917 23.2344 21.1042 22.6354 20.5938 21.875C20.0938 21.1042 19.8438 20.2292 19.8438 19.25C19.8438 18.3646 20.0104 17.5781 20.3438 16.8906C20.6771 16.2031 21.1667 15.625 21.8125 15.1562C22.4688 14.6771 23.2865 14.3177 24.2656 14.0781C25.2448 13.8281 26.3802 13.7031 27.6719 13.7031H30.2812ZM45.9688 7.09375V10.2812H36.125V7.09375H45.9688ZM38.5625 2.92188H43.0625V18.9062C43.0625 19.3958 43.125 19.7708 43.25 20.0312C43.3854 20.2917 43.5833 20.474 43.8438 20.5781C44.1042 20.6719 44.4323 20.7188 44.8281 20.7188C45.1094 20.7188 45.3594 20.7083 45.5781 20.6875C45.8073 20.6562 46 20.625 46.1562 20.5938L46.1719 23.9062C45.7865 24.0312 45.3698 24.1302 44.9219 24.2031C44.474 24.276 43.9792 24.3125 43.4375 24.3125C42.4479 24.3125 41.5833 24.151 40.8438 23.8281C40.1146 23.4948 39.5521 22.9635 39.1562 22.2344C38.7604 21.5052 38.5625 20.5469 38.5625 19.3594V2.92188ZM57.6562 20.1875V12.6562C57.6562 12.1146 57.5677 11.651 57.3906 11.2656C57.2135 10.8698 56.9375 10.5625 56.5625 10.3438C56.1979 10.125 55.724 10.0156 55.1406 10.0156C54.6406 10.0156 54.2083 10.1042 53.8438 10.2812C53.4792 10.4479 53.1979 10.6927 53 11.0156C52.8021 11.3281 52.7031 11.6979 52.7031 12.125H48.2031C48.2031 11.4062 48.3698 10.724 48.7031 10.0781C49.0365 9.43229 49.5208 8.86458 50.1562 8.375C50.7917 7.875 51.5469 7.48438 52.4219 7.20312C53.3073 6.92188 54.2969 6.78125 55.3906 6.78125C56.7031 6.78125 57.8698 7 58.8906 7.4375C59.9115 7.875 60.7135 8.53125 61.2969 9.40625C61.8906 10.2812 62.1875 11.375 62.1875 12.6875V19.9219C62.1875 20.849 62.2448 21.6094 62.3594 22.2031C62.474 22.7865 62.6406 23.2969 62.8594 23.7344V24H58.3125C58.0938 23.5417 57.9271 22.9688 57.8125 22.2812C57.7083 21.5833 57.6562 20.8854 57.6562 20.1875ZM58.25 13.7031L58.2812 16.25H55.7656C55.1719 16.25 54.6562 16.3177 54.2188 16.4531C53.7812 16.5885 53.4219 16.7812 53.1406 17.0312C52.8594 17.2708 52.651 17.5521 52.5156 17.875C52.3906 18.1979 52.3281 18.5521 52.3281 18.9375C52.3281 19.3229 52.4167 19.6719 52.5938 19.9844C52.7708 20.2865 53.026 20.526 53.3594 20.7031C53.6927 20.8698 54.0833 20.9531 54.5312 20.9531C55.2083 20.9531 55.7969 20.8177 56.2969 20.5469C56.7969 20.276 57.1823 19.9427 57.4531 19.5469C57.7344 19.151 57.8802 18.776 57.8906 18.4219L59.0781 20.3281C58.9115 20.7552 58.6823 21.1979 58.3906 21.6562C58.1094 22.1146 57.75 22.5469 57.3125 22.9531C56.875 23.349 56.349 23.6771 55.7344 23.9375C55.1198 24.1875 54.3906 24.3125 53.5469 24.3125C52.474 24.3125 51.5 24.099 50.625 23.6719C49.7604 23.2344 49.0729 22.6354 48.5625 21.875C48.0625 21.1042 47.8125 20.2292 47.8125 19.25C47.8125 18.3646 47.9792 17.5781 48.3125 16.8906C48.6458 16.2031 49.1354 15.625 49.7812 15.1562C50.4375 14.6771 51.2552 14.3177 52.2344 14.0781C53.2135 13.8281 54.349 13.7031 55.6406 13.7031H58.25ZM80.8906 24H75.9375L75.9688 20.3438H80.8906C82.1198 20.3438 83.1562 20.0677 84 19.5156C84.8438 18.9531 85.4792 18.1354 85.9062 17.0625C86.3438 15.9896 86.5625 14.6927 86.5625 13.1719V12.0625C86.5625 10.8958 86.4375 9.86979 86.1875 8.98438C85.9479 8.09896 85.5885 7.35417 85.1094 6.75C84.6302 6.14583 84.0417 5.69271 83.3438 5.39062C82.6458 5.07812 81.8438 4.92188 80.9375 4.92188H75.8438V1.25H80.9375C82.4583 1.25 83.849 1.51042 85.1094 2.03125C86.3802 2.54167 87.4792 3.27604 88.4062 4.23438C89.3333 5.19271 90.0469 6.33854 90.5469 7.67188C91.0573 8.99479 91.3125 10.4688 91.3125 12.0938V13.1719C91.3125 14.7865 91.0573 16.2604 90.5469 17.5938C90.0469 18.9271 89.3333 20.0729 88.4062 21.0312C87.4896 21.9792 86.3906 22.7135 85.1094 23.2344C83.8385 23.7448 82.4323 24 80.8906 24ZM78.5938 1.25V24H73.9062V1.25H78.5938ZM99.1875 7.09375V24H94.6719V7.09375H99.1875ZM94.3906 2.6875C94.3906 2.03125 94.6198 1.48958 95.0781 1.0625C95.5365 0.635417 96.151 0.421875 96.9219 0.421875C97.6823 0.421875 98.2917 0.635417 98.75 1.0625C99.2188 1.48958 99.4531 2.03125 99.4531 2.6875C99.4531 3.34375 99.2188 3.88542 98.75 4.3125C98.2917 4.73958 97.6823 4.95312 96.9219 4.95312C96.151 4.95312 95.5365 4.73958 95.0781 4.3125C94.6198 3.88542 94.3906 3.34375 94.3906 2.6875ZM108.656 20.7188L112.406 7.09375H117.109L111.406 24H108.562L108.656 20.7188ZM106.078 7.09375L109.844 20.7344L109.922 24H107.062L101.359 7.09375H106.078ZM126.688 24.3125C125.375 24.3125 124.198 24.1042 123.156 23.6875C122.115 23.2604 121.229 22.6719 120.5 21.9219C119.781 21.1719 119.229 20.3021 118.844 19.3125C118.458 18.3125 118.266 17.25 118.266 16.125V15.5C118.266 14.2188 118.448 13.0469 118.812 11.9844C119.177 10.9219 119.698 10 120.375 9.21875C121.062 8.4375 121.896 7.83854 122.875 7.42188C123.854 6.99479 124.958 6.78125 126.188 6.78125C127.385 6.78125 128.448 6.97917 129.375 7.375C130.302 7.77083 131.078 8.33333 131.703 9.0625C132.339 9.79167 132.818 10.6667 133.141 11.6875C133.464 12.6979 133.625 13.8229 133.625 15.0625V16.9375H120.188V13.9375H129.203V13.5938C129.203 12.9688 129.089 12.4115 128.859 11.9219C128.641 11.4219 128.307 11.026 127.859 10.7344C127.411 10.4427 126.839 10.2969 126.141 10.2969C125.547 10.2969 125.036 10.4271 124.609 10.6875C124.182 10.9479 123.833 11.3125 123.562 11.7812C123.302 12.25 123.104 12.8021 122.969 13.4375C122.844 14.0625 122.781 14.75 122.781 15.5V16.125C122.781 16.8021 122.875 17.4271 123.062 18C123.26 18.5729 123.536 19.0677 123.891 19.4844C124.255 19.901 124.693 20.224 125.203 20.4531C125.724 20.6823 126.312 20.7969 126.969 20.7969C127.781 20.7969 128.536 20.6406 129.234 20.3281C129.943 20.0052 130.552 19.5208 131.062 18.875L133.25 21.25C132.896 21.7604 132.411 22.25 131.797 22.7188C131.193 23.1875 130.464 23.5729 129.609 23.875C128.755 24.1667 127.781 24.3125 126.688 24.3125ZM140.688 10.7812V24H136.188V7.09375H140.422L140.688 10.7812ZM145.781 6.98438L145.703 11.1562C145.484 11.125 145.219 11.099 144.906 11.0781C144.604 11.0469 144.328 11.0312 144.078 11.0312C143.443 11.0312 142.891 11.1146 142.422 11.2812C141.964 11.4375 141.578 11.6719 141.266 11.9844C140.964 12.2969 140.734 12.6771 140.578 13.125C140.432 13.5729 140.349 14.0833 140.328 14.6562L139.422 14.375C139.422 13.2812 139.531 12.276 139.75 11.3594C139.969 10.4323 140.286 9.625 140.703 8.9375C141.13 8.25 141.651 7.71875 142.266 7.34375C142.88 6.96875 143.583 6.78125 144.375 6.78125C144.625 6.78125 144.88 6.80208 145.141 6.84375C145.401 6.875 145.615 6.92188 145.781 6.98438ZM157.047 19.3281C157.047 19.0052 156.953 18.7135 156.766 18.4531C156.578 18.1927 156.229 17.9531 155.719 17.7344C155.219 17.5052 154.495 17.2969 153.547 17.1094C152.693 16.9219 151.896 16.6875 151.156 16.4062C150.427 16.1146 149.792 15.7656 149.25 15.3594C148.719 14.9531 148.302 14.474 148 13.9219C147.698 13.3594 147.547 12.7188 147.547 12C147.547 11.2917 147.698 10.625 148 10C148.312 9.375 148.755 8.82292 149.328 8.34375C149.911 7.85417 150.62 7.47396 151.453 7.20312C152.297 6.92188 153.245 6.78125 154.297 6.78125C155.766 6.78125 157.026 7.01562 158.078 7.48438C159.141 7.95312 159.953 8.59896 160.516 9.42188C161.089 10.2344 161.375 11.1615 161.375 12.2031H156.875C156.875 11.7656 156.781 11.375 156.594 11.0312C156.417 10.6771 156.135 10.401 155.75 10.2031C155.375 9.99479 154.885 9.89062 154.281 9.89062C153.781 9.89062 153.349 9.97917 152.984 10.1562C152.62 10.3229 152.339 10.5521 152.141 10.8438C151.953 11.125 151.859 11.4375 151.859 11.7812C151.859 12.0417 151.911 12.276 152.016 12.4844C152.13 12.6823 152.312 12.8646 152.562 13.0312C152.812 13.1979 153.135 13.3542 153.531 13.5C153.938 13.6354 154.438 13.7604 155.031 13.875C156.25 14.125 157.339 14.4531 158.297 14.8594C159.255 15.2552 160.016 15.7969 160.578 16.4844C161.141 17.1615 161.422 18.0521 161.422 19.1562C161.422 19.9062 161.255 20.5938 160.922 21.2188C160.589 21.8438 160.109 22.3906 159.484 22.8594C158.859 23.3177 158.109 23.6771 157.234 23.9375C156.37 24.1875 155.396 24.3125 154.312 24.3125C152.74 24.3125 151.406 24.0312 150.312 23.4688C149.229 22.9062 148.406 22.1927 147.844 21.3281C147.292 20.4531 147.016 19.5573 147.016 18.6406H151.281C151.302 19.2552 151.458 19.75 151.75 20.125C152.052 20.5 152.432 20.7708 152.891 20.9375C153.359 21.1042 153.865 21.1875 154.406 21.1875C154.99 21.1875 155.474 21.1094 155.859 20.9531C156.245 20.7865 156.536 20.5677 156.734 20.2969C156.943 20.0156 157.047 19.6927 157.047 19.3281ZM169.094 7.09375V24H164.578V7.09375H169.094ZM164.297 2.6875C164.297 2.03125 164.526 1.48958 164.984 1.0625C165.443 0.635417 166.057 0.421875 166.828 0.421875C167.589 0.421875 168.198 0.635417 168.656 1.0625C169.125 1.48958 169.359 2.03125 169.359 2.6875C169.359 3.34375 169.125 3.88542 168.656 4.3125C168.198 4.73958 167.589 4.95312 166.828 4.95312C166.057 4.95312 165.443 4.73958 164.984 4.3125C164.526 3.88542 164.297 3.34375 164.297 2.6875ZM181.094 7.09375V10.2812H171.25V7.09375H181.094ZM173.688 2.92188H178.188V18.9062C178.188 19.3958 178.25 19.7708 178.375 20.0312C178.51 20.2917 178.708 20.474 178.969 20.5781C179.229 20.6719 179.557 20.7188 179.953 20.7188C180.234 20.7188 180.484 20.7083 180.703 20.6875C180.932 20.6562 181.125 20.625 181.281 20.5938L181.297 23.9062C180.911 24.0312 180.495 24.1302 180.047 24.2031C179.599 24.276 179.104 24.3125 178.562 24.3125C177.573 24.3125 176.708 24.151 175.969 23.8281C175.24 23.4948 174.677 22.9635 174.281 22.2344C173.885 21.5052 173.688 20.5469 173.688 19.3594V2.92188ZM188.672 22.0938L193.156 7.09375H197.984L191.188 26.5469C191.042 26.974 190.844 27.4323 190.594 27.9219C190.354 28.4115 190.026 28.875 189.609 29.3125C189.203 29.7604 188.688 30.125 188.062 30.4062C187.448 30.6875 186.693 30.8281 185.797 30.8281C185.37 30.8281 185.021 30.8021 184.75 30.75C184.479 30.6979 184.156 30.625 183.781 30.5312V27.2344C183.896 27.2344 184.016 27.2344 184.141 27.2344C184.266 27.2448 184.385 27.25 184.5 27.25C185.094 27.25 185.578 27.1823 185.953 27.0469C186.328 26.9115 186.63 26.7031 186.859 26.4219C187.089 26.151 187.271 25.7969 187.406 25.3594L188.672 22.0938ZM186.797 7.09375L190.469 19.3438L191.109 24.1094L188.047 24.4375L181.969 7.09375H186.797ZM222.656 20.3438V24H211.203V20.3438H222.656ZM212.719 1.25V24H208.031V1.25H212.719ZM234.188 20.1875V12.6562C234.188 12.1146 234.099 11.651 233.922 11.2656C233.745 10.8698 233.469 10.5625 233.094 10.3438C232.729 10.125 232.255 10.0156 231.672 10.0156C231.172 10.0156 230.74 10.1042 230.375 10.2812C230.01 10.4479 229.729 10.6927 229.531 11.0156C229.333 11.3281 229.234 11.6979 229.234 12.125H224.734C224.734 11.4062 224.901 10.724 225.234 10.0781C225.568 9.43229 226.052 8.86458 226.688 8.375C227.323 7.875 228.078 7.48438 228.953 7.20312C229.839 6.92188 230.828 6.78125 231.922 6.78125C233.234 6.78125 234.401 7 235.422 7.4375C236.443 7.875 237.245 8.53125 237.828 9.40625C238.422 10.2812 238.719 11.375 238.719 12.6875V19.9219C238.719 20.849 238.776 21.6094 238.891 22.2031C239.005 22.7865 239.172 23.2969 239.391 23.7344V24H234.844C234.625 23.5417 234.458 22.9688 234.344 22.2812C234.24 21.5833 234.188 20.8854 234.188 20.1875ZM234.781 13.7031L234.812 16.25H232.297C231.703 16.25 231.188 16.3177 230.75 16.4531C230.312 16.5885 229.953 16.7812 229.672 17.0312C229.391 17.2708 229.182 17.5521 229.047 17.875C228.922 18.1979 228.859 18.5521 228.859 18.9375C228.859 19.3229 228.948 19.6719 229.125 19.9844C229.302 20.2865 229.557 20.526 229.891 20.7031C230.224 20.8698 230.615 20.9531 231.062 20.9531C231.74 20.9531 232.328 20.8177 232.828 20.5469C233.328 20.276 233.714 19.9427 233.984 19.5469C234.266 19.151 234.411 18.776 234.422 18.4219L235.609 20.3281C235.443 20.7552 235.214 21.1979 234.922 21.6562C234.641 22.1146 234.281 22.5469 233.844 22.9531C233.406 23.349 232.88 23.6771 232.266 23.9375C231.651 24.1875 230.922 24.3125 230.078 24.3125C229.005 24.3125 228.031 24.099 227.156 23.6719C226.292 23.2344 225.604 22.6354 225.094 21.875C224.594 21.1042 224.344 20.2292 224.344 19.25C224.344 18.3646 224.51 17.5781 224.844 16.8906C225.177 16.2031 225.667 15.625 226.312 15.1562C226.969 14.6771 227.786 14.3177 228.766 14.0781C229.745 13.8281 230.88 13.7031 232.172 13.7031H234.781ZM242.188 0H246.688V20.125L246.234 24H242.188V0ZM257.391 15.375V15.7031C257.391 16.9635 257.255 18.1198 256.984 19.1719C256.724 20.224 256.318 21.1354 255.766 21.9062C255.214 22.6667 254.526 23.2604 253.703 23.6875C252.891 24.1042 251.932 24.3125 250.828 24.3125C249.797 24.3125 248.901 24.1042 248.141 23.6875C247.391 23.2708 246.76 22.6823 246.25 21.9219C245.74 21.1615 245.328 20.2708 245.016 19.25C244.703 18.2292 244.469 17.1146 244.312 15.9062V15.1875C244.469 13.9792 244.703 12.8646 245.016 11.8438C245.328 10.8229 245.74 9.93229 246.25 9.17188C246.76 8.41146 247.391 7.82292 248.141 7.40625C248.891 6.98958 249.776 6.78125 250.797 6.78125C251.911 6.78125 252.88 6.99479 253.703 7.42188C254.536 7.83854 255.224 8.43229 255.766 9.20312C256.318 9.96354 256.724 10.8698 256.984 11.9219C257.255 12.9635 257.391 14.1146 257.391 15.375ZM252.891 15.7031V15.375C252.891 14.6875 252.839 14.0417 252.734 13.4375C252.641 12.8229 252.474 12.2865 252.234 11.8281C251.995 11.3594 251.667 10.9896 251.25 10.7188C250.844 10.4479 250.318 10.3125 249.672 10.3125C249.057 10.3125 248.536 10.4167 248.109 10.625C247.682 10.8333 247.328 11.125 247.047 11.5C246.776 11.875 246.573 12.3229 246.438 12.8438C246.302 13.3542 246.219 13.9167 246.188 14.5312V16.5781C246.219 17.401 246.354 18.1302 246.594 18.7656C246.844 19.3906 247.219 19.8854 247.719 20.25C248.229 20.6042 248.891 20.7812 249.703 20.7812C250.339 20.7812 250.865 20.6562 251.281 20.4062C251.698 20.1562 252.021 19.8021 252.25 19.3438C252.49 18.8854 252.656 18.349 252.75 17.7344C252.844 17.1094 252.891 16.4323 252.891 15.7031Z" fill="white"/>
</svg>
